PathFileType	4	(X/Y/Z)	Patient4_TMGait_0pt4_02_left_04.trc.trc
DataRate	CameraRate	NumFrames	NumMarkers	Units	OrigDataRate	OrigDataStartFrame	OrigNumFrames
72.916666666667	72.916666666667	5	33	mm	72.916666666667	53	       141
Frame#	Time	Sacral			L.Shoulder			Chest			R.Shoulder			Neck			R.ASIS			L.ASIS			R.Thigh.Superior			R.Thigh.Lateral			R.Thigh.Inferior			R.Patella			L.Thigh.Superior			L.Thigh.Lateral			L.Thigh.Inferior			L.Patella			L.Shank.Superior			L.Shank.Lateral			L.Shank.Inferior			R.Shank.Superior			R.Shank.Lateral			R.Shank.Inferior			R.Heel			R.Midfoot.Superior			R.Midfoot.Lateral			R.Toe			L.Heel			L.Midfoot.Lateral			L.Midfoot.Superior			L.Toe			L.Elbow			L.Wrist			R.Elbow			R.Wrist			
		X1	Y1	Z1	X2	Y2	Z2	X3	Y3	Z3	X4	Y4	Z4	X5	Y5	Z5	X6	Y6	Z6	X7	Y7	Z7	X8	Y8	Z8	X9	Y9	Z9	X10	Y10	Z10	X11	Y11	Z11	X12	Y12	Z12	X13	Y13	Z13	X14	Y14	Z14	X15	Y15	Z15	X16	Y16	Z16	X17	Y17	Z17	X18	Y18	Z18	X19	Y19	Z19	X20	Y20	Z20	X21	Y21	Z21	X22	Y22	Z22	X23	Y23	Z23	X24	Y24	Z24	X25	Y25	Z25	X26	Y26	Z26	X27	Y27	Z27	X28	Y28	Z28	X29	Y29	Z29	X30	Y30	Z30	X31	Y31	Z31	X32	Y32	Z32	X33	Y33	Z33	

53	5.983142857143	846.940054515440	1004.511427091188	428.421215914299	1030.418839902497	1434.938279402820	233.044343149732	1130.042408518456	1368.931579781941	396.804248401926	1043.327641232770	1443.404154170475	568.929713706346	1011.759973408794	1498.368029413770	389.114557247975	1078.957895194674	952.022412253043	543.400071037149	1061.561725249703	963.908504515577	268.777805503288	1160.761213853595	775.408352339164	520.553239653825	1116.755675021479	656.940213806500	600.135984373162	1205.743736352758	613.898344030998	523.947389190883	1224.876397079082	507.437114557401	550.191429872587	1112.506288138661	751.056120639090	299.276308717469	1021.175228498767	634.251737238443	245.816905422360	1106.970069936171	557.507947084934	307.222885869495	1106.736852486664	488.430753951774	319.481370446249	1078.508206125925	415.629353963589	314.172045010121	985.599372642737	302.209827125685	266.988202283243	1033.093462632332	191.409365137328	340.981075298270	1158.468916755019	427.069576030578	562.260398751412	1046.767569095492	374.481136094561	630.555416413754	1044.619739579887	262.508110573988	585.865402738561	853.388351759627	174.326743120506	571.490219710217	1029.763486706953	139.592131339595	605.050947022041	923.239778360353	125.105229010903	643.478856752235	1109.541745909028	36.619996565261	629.641474363977	903.360801372973	38.779743226534	390.068378437997	974.210404770908	35.464874233127	306.488807303549	1058.250665067046	95.968595844418	330.469274715028	1186.109099346711	43.594289612270	297.304847512828	1045.268148488888	1093.031640126940	90.319944260346	1204.966011068558	883.515757691842	103.204759484762	999.981700247757	1098.616898358459	692.863610570177	1077.029008044749	848.463243796741	706.661518713440	
54	5.996857142857	845.670116352849	1005.286527997499	426.037632632238	1032.274381124650	1435.573456902289	232.009155041278	1129.618997374804	1369.351484485966	396.997430415980	1040.828298594803	1443.935846318113	567.958544792245	1011.684747780704	1498.933907583742	388.024107420771	1076.765875677302	953.160251188617	543.161112589587	1061.571609229093	964.243527350229	268.357502979530	1159.444438531322	777.418981740408	520.385349418129	1116.308396180087	658.975112115237	600.407488759035	1204.932563877167	616.088229436140	523.886034373819	1225.785130980345	511.219200416868	550.531103306377	1110.257798797414	750.480416622382	299.953057244431	1018.227904094458	634.392130111708	245.390304404209	1102.743143274175	556.970256469098	307.535037172453	1101.755492404247	488.047558313186	319.759574953193	1073.517437212545	415.478964555510	314.159142995135	980.506745990006	302.170936531611	266.773476976407	1027.683130553902	191.374492571347	341.019116894178	1162.680175985550	429.136793144407	562.912540332878	1053.899501432380	371.295671928401	631.398438430389	1057.307128535027	259.243777728298	586.862815686340	870.875203626363	161.483243451431	572.560898941079	1048.725592765314	135.875743631001	606.615303319668	943.044995599073	115.996018863164	644.725401864840	1133.297317031894	37.112754937202	631.198467094760	897.795662476541	38.785466761050	390.044078191357	968.676850652785	35.456818553424	306.466025781981	1052.735806248421	95.957385636947	330.462035576676	1180.591014839954	43.557592649554	297.322975151344	1050.766579508949	1094.163872924093	88.852656216094	1212.895047949432	886.641221670692	103.989487247598	988.739442916880	1101.338845403476	693.296888980899	1056.013249274991	848.798583097423	712.599358174556	
55	6.010571428571	844.418970393185	1006.070348153826	423.789335212070	1034.315982656363	1436.074864506095	231.137622052615	1129.319649614888	1369.660097215120	397.362767359122	1038.472537517655	1444.452228084407	567.089635779542	1011.717217524722	1499.416157217462	387.045059537869	1074.528292653757	954.107289476669	543.122944205095	1061.595098964126	964.502975785469	268.147352646143	1157.685489293724	778.948628949515	520.398640076199	1115.198268601280	660.662358987666	600.875688592586	1203.229617924201	617.688076670435	523.913390322905	1225.696550676970	514.677486986216	550.912510889095	1107.871447670826	749.892672624696	300.743438089857	1015.149011729661	634.552422624929	244.991361083679	1098.355690448537	556.441615644123	307.831799226121	1096.590015616382	487.680554710010	319.972736257351	1068.376427278019	415.355209192369	314.084666306087	975.261659067782	302.133516620371	266.505454229655	1022.223054089286	191.364854444001	341.005926117003	1166.330254770592	430.978028852225	563.678293398104	1061.078849592235	367.554211020891	632.454307191514	1070.568742640555	255.741082188758	588.036794239070	889.929394222270	147.853472563283	573.880433313859	1068.906589940554	132.119528962776	608.325449194242	964.433475670094	106.477428794631	646.174576844353	1158.468641995149	38.170829921143	632.871072857899	892.230521119573	38.785200105147	390.022451670707	963.134530815619	35.436395950546	306.441497751616	1047.210456321615	95.949936241378	330.441198700776	1175.063233525029	43.541019152530	297.345224203404	1055.963328295061	1095.162083308578	87.606946624139	1220.403466699386	889.617875524295	105.180680275563	977.554965477723	1104.288720603302	693.678493386988	1035.876501860701	850.084750651410	717.889690105098	
56	6.024285714286	843.199377463293	1006.819443834309	421.702555609608	1036.496639104937	1436.391404885378	230.432796067625	1129.138334796039	1369.819720339179	397.885940265493	1036.294631789083	1444.919930134007	566.331631835357	1011.861731677378	1499.779253307290	386.180819909360	1072.265597864693	954.813547947627	543.278202301749	1061.610150395773	964.655119174189	268.135551201246	1155.461901595127	779.924428852696	520.593073602743	1113.387122805439	661.947375136790	601.543890766638	1200.651870319765	618.654311467795	524.066875366104	1224.607631339676	517.744253120037	551.344638316599	1105.386716934662	749.283770346624	301.563228079546	1011.970646062606	634.716616499961	244.608783614294	1093.871910757315	555.912791010181	308.075542917080	1091.318777024347	487.318423775219	320.095624495504	1063.147597704276	415.240625811595	313.940589450293	969.911929854626	302.094347919306	266.184007253252	1016.734478839311	191.365303995997	340.935914954086	1169.384959926758	432.615225789558	564.555305434512	1068.277109812625	363.429140210623	633.702885962941	1084.264553656029	252.257297632295	589.356649202468	910.454585484057	133.954569037855	575.371668805742	1090.063965956476	128.642724456125	610.106645777399	987.207320750546	97.006491262330	647.755322379382	1184.664369284151	40.065858824120	634.610249372719	886.668927847492	38.780480628861	390.000489413748	957.586314109840	35.404463060857	306.414202939239	1041.677262427221	95.942954715074	330.406028380265	1169.528542455876	43.537274380615	297.369747514899	1060.876534300305	1095.966920165153	86.570127811237	1227.509471098059	892.396169866408	106.751090824485	966.502807226101	1107.401890005848	693.969012607213	1016.683721006145	852.099487666502	722.524019552552	
57	6.038000000000	842.025702513236	1007.497658437777	419.802645887007	1038.763176520695	1436.483696492504	229.896327659918	1129.066191963359	1369.803360005908	398.550436544283	1034.323408981514	1445.313583934568	565.693394063504	1012.119450157175	1499.996470332925	385.434867258989	1070.001043793325	955.242676496192	543.616296188911	1061.605872338984	964.682063287194	268.306857849721	1152.764561488116	780.294575597080	520.973768244408	1110.849775370017	662.789499984978	602.409388772186	1197.248210700199	618.970979489044	524.388127599133	1222.548310066612	520.368184155329	551.837733554941	1102.847454776768	748.647161518151	302.346143090857	1008.728413284783	634.871961978668	244.240160310712	1089.353064988956	555.375694770329	308.244526235234	1086.015512463925	486.951331762541	320.118743592171	1057.888939916168	415.120143033917	313.730955524845	964.505177550717	302.052725816332	265.818464102151	1011.236781441906	191.361974817218	340.810519095740	1171.823980968801	434.081304654264	565.538427836841	1075.457580262900	359.098335024351	635.117562789099	1098.234210356645	249.037471831384	590.782186486847	932.285712845368	120.288395964724	576.949324791141	1111.929386916698	125.742497976396	611.886927161650	1011.116146934055	88.010612554843	649.386500841995	1211.476682215654	43.025902279604	636.351766462691	881.113554928429	38.773109650731	389.975428619933	952.035312591533	35.362882150220	306.383721825706	1036.139338971486	95.933035828312	330.357462839704	1163.990036871063	43.538176585963	297.395100856408	1065.529834065000	1096.527831462449	85.744789522869	1234.232522279032	894.929349731370	108.673229198093	955.675648533115	1110.617879029742	694.139092095561	998.483066688413	854.637701427179	726.506088591663	
